<svg xmlns="http://www.w3.org/2000/svg" xmlns:xlink="http://www.w3.org/1999/xlink" id="Camada_1" viewBox="0 0 83 42"><defs><style> .st0, .st1 { fill: #0e74ba; } .st2 { fill: none; } .st3 { clip-path: url(#clippath-1); } .st1 { fill-rule: evenodd; } .st4 { fill: #ef7a1d; } .st5 { clip-path: url(#clippath); } </style><clipPath id="clippath"><rect class="st2" x="2.19" y=".84" width="78.61" height="40.31"></rect></clipPath><clipPath id="clippath-1"><rect class="st2" x="2.19" y=".84" width="78.61" height="40.31"></rect></clipPath></defs><g id="Logo_VLI_Positiva"><g class="st5"><g class="st3"><path class="st4" d="M80.81,35.88c0,2.91-2.36,5.27-5.27,5.27s-5.27-2.36-5.27-5.27,2.36-5.27,5.27-5.27,5.27,2.36,5.27,5.27"></path><rect class="st0" x="70.82" y=".84" width="9.44" height="26.6"></rect><path class="st1" d="M26.7,36.08c-.95,2.54-3.39,4.36-6.25,4.36s-5.49-1.97-6.28-4.63L2.19.84h9.99c1.51,4.87,7.73,25.01,8.09,26.92h.41c.32-1.96,6.57-22.06,8.09-26.92h9.99l-12.05,35.23Z"></path><path class="st1" d="M53.72.84v30.55h13.03v9.05h-18.63c-2.52,0-4.56-2.04-4.56-4.55V.84h10.16Z"></path></g></g></g></svg>